<?xml version="1.0" encoding="utf-8"?>
<!-- Generator: Adobe Illustrator 23.0.1, SVG Export Plug-In . SVG Version: 6.00 Build 0)  -->
<svg version="1.1" id="Слой_1" xmlns="http://www.w3.org/2000/svg" xmlns:xlink="http://www.w3.org/1999/xlink" x="0px" y="0px"
	 viewBox="0 0 3005.8 2000" style="enable-background:new 0 0 3005.8 2000;" xml:space="preserve">
<style type="text/css">
	.st0{fill:#FAFAFA;}
	.st1{fill:#5C81FE;}
	.st2{fill:url(#SVGID_1_);}
	.st3{filter:url(#Adobe_OpacityMaskFilter);}
	.st4{filter:url(#Adobe_OpacityMaskFilter_1_);}
	.st5{mask:url(#SVGID_2_);fill:url(#SVGID_3_);}
	.st6{fill:url(#SVGID_4_);}
	.st7{filter:url(#Adobe_OpacityMaskFilter_2_);}
	.st8{filter:url(#Adobe_OpacityMaskFilter_3_);}
	.st9{mask:url(#SVGID_5_);fill:url(#SVGID_6_);}
	.st10{fill:url(#SVGID_7_);}
	.st11{filter:url(#Adobe_OpacityMaskFilter_4_);}
	.st12{filter:url(#Adobe_OpacityMaskFilter_5_);}
	.st13{mask:url(#SVGID_8_);fill:url(#SVGID_9_);}
	.st14{fill:url(#SVGID_10_);}
	.st15{fill:#E0E0E0;}
	.st16{fill:#1487E3;}
	.st17{fill:#78C2FF;}
	.st18{fill:#FF8761;}
	.st19{fill:#323657;}
	.st20{fill:url(#SVGID_11_);}
	.st21{fill:url(#SVGID_12_);}
	.st22{fill:url(#SVGID_13_);}
	.st23{fill:#FFD770;}
	.st24{fill:#FFFFFF;}
	.st25{fill:url(#SVGID_14_);}
	.st26{fill:url(#SVGID_15_);}
	.st27{fill:#609AE8;}
	.st28{fill:#9CC7FF;}
	.st29{fill:#D7D7E6;}
	.st30{fill:#2A6993;}
	.st31{fill:#5B83C2;}
	.st32{fill:#5478B3;}
	.st33{fill:#EEA886;}
	.st34{fill:#C5CDDB;}
	.st35{fill:#E55353;}
	.st36{fill:#DCE6FA;}
	.st37{fill:#434343;}
	.st38{fill:#49699C;}
	.st39{fill:#525252;}
	.st40{fill:#6E6E6E;}
	.st41{fill:#A77860;}
	.st42{fill:#35527A;}
	.st43{fill:#FFD670;}
	.st44{fill:#293F5E;}
	.st45{fill:#3A3F47;}
	.st46{fill:#A88D4A;}
	.st47{fill:#444C94;}
	.st48{fill:#303669;}
	.st49{fill:#518AFA;}
	.st50{fill:#EAD8CF;}
	.st51{fill:#DA9B5B;}
	.st52{fill:#424773;}
	.st53{fill:#292C47;}
	.st54{fill:#754836;}
	.st55{fill:#E2D2CA;}
	.st56{fill:#EFAA88;}
	.st57{fill:#E8734D;}
	.st58{fill:#EEA987;}
	.st59{fill:#1D3B54;}
	.st60{fill:#857B77;}
	.st61{fill:#918682;}
</style>
<g>
	<rect class="st0" width="3005.8" height="2000"/>
	<polygon class="st1" points="2704.44,1631.33 2463.94,1445.94 2463.94,1549.2 2434.47,1549.2 2201.83,1549.2 830.89,1549.2 
		830.89,1715.12 2348.49,1715.12 2434.47,1715.12 2463.94,1715.12 2463.94,1816.73 	"/>
	<linearGradient id="SVGID_1_" gradientUnits="userSpaceOnUse" x1="2562.0857" y1="385.0749" x2="1992.6121" y2="764.7244">
		<stop  offset="0" style="stop-color:#40D5E6"/>
		<stop  offset="1" style="stop-color:#4B69E0"/>
	</linearGradient>
	<path class="st2" d="M2341.31,265.18l-165.14,35.59l76.45,150.64l27.21-57.13c122.27,58.23,174.37,205.07,116.14,327.34
		C2337.75,843.9,2190.91,896,2068.64,837.77c-122.27-58.23-174.37-205.07-116.14-327.34l-71.98-34.28
		c-77.13,161.96-8.11,356.47,153.85,433.6c161.96,77.13,356.47,8.11,433.6-153.85s8.11-356.47-153.85-433.6L2341.31,265.18z"/>
	<g>
		<defs>
			<filter id="Adobe_OpacityMaskFilter" filterUnits="userSpaceOnUse" x="504.93" y="153.36" width="1561.76" height="1561.76">
				<feFlood  style="flood-color:white;flood-opacity:1" result="back"/>
				<feBlend  in="SourceGraphic" in2="back" mode="normal"/>
			</filter>
		</defs>
		<mask maskUnits="userSpaceOnUse" x="504.93" y="153.36" width="1561.76" height="1561.76" id="SVGID_2_">
			<g class="st3">
				<defs>
					
						<filter id="Adobe_OpacityMaskFilter_1_" filterUnits="userSpaceOnUse" x="504.93" y="153.36" width="1561.76" height="1561.76">
						<feFlood  style="flood-color:white;flood-opacity:1" result="back"/>
						<feBlend  in="SourceGraphic" in2="back" mode="normal"/>
					</filter>
				</defs>
				<mask maskUnits="userSpaceOnUse" x="504.93" y="153.36" width="1561.76" height="1561.76" id="SVGID_2_">
					<g class="st4">
					</g>
				</mask>
				<linearGradient id="SVGID_3_" gradientUnits="userSpaceOnUse" x1="504.9267" y1="934.2371" x2="2066.6875" y2="934.2371">
					<stop  offset="0" style="stop-color:#000000"/>
					<stop  offset="1" style="stop-color:#FFFFFF"/>
				</linearGradient>
				<path class="st5" d="M1285.81,1715.12c-105.38,0-207.65-20.66-303.98-61.4c-93-39.33-176.5-95.63-248.19-167.31
					s-127.98-155.19-167.32-248.19c-40.74-96.32-61.4-198.6-61.4-303.98c0-105.38,20.66-207.66,61.4-303.98
					c39.33-93,95.63-176.5,167.32-248.19s155.19-127.98,248.19-167.31c96.32-40.74,198.6-61.4,303.98-61.4
					c105.38,0,207.66,20.66,303.98,61.4c93,39.33,176.5,95.63,248.19,167.31c71.69,71.69,127.98,155.19,167.32,248.19
					c40.74,96.32,61.4,198.6,61.4,303.98c0,105.38-20.66,207.65-61.4,303.98c-39.33,93-95.63,176.5-167.32,248.19
					c-71.69,71.69-155.19,127.98-248.19,167.31C1493.46,1694.46,1391.19,1715.12,1285.81,1715.12z M1285.81,319.28
					c-339.09,0-614.96,275.87-614.96,614.96c0,339.09,275.87,614.96,614.96,614.96c339.09,0,614.96-275.87,614.96-614.96
					C1900.77,595.15,1624.9,319.28,1285.81,319.28z"/>
			</g>
		</mask>
		<linearGradient id="SVGID_4_" gradientUnits="userSpaceOnUse" x1="504.9267" y1="934.2371" x2="2066.6875" y2="934.2371">
			<stop  offset="0" style="stop-color:#40D5E6"/>
			<stop  offset="1" style="stop-color:#5577FF"/>
		</linearGradient>
		<path class="st6" d="M1285.81,1715.12c-105.38,0-207.65-20.66-303.98-61.4c-93-39.33-176.5-95.63-248.19-167.31
			s-127.98-155.19-167.32-248.19c-40.74-96.32-61.4-198.6-61.4-303.98c0-105.38,20.66-207.66,61.4-303.98
			c39.33-93,95.63-176.5,167.32-248.19s155.19-127.98,248.19-167.31c96.32-40.74,198.6-61.4,303.98-61.4
			c105.38,0,207.66,20.66,303.98,61.4c93,39.33,176.5,95.63,248.19,167.31c71.69,71.69,127.98,155.19,167.32,248.19
			c40.74,96.32,61.4,198.6,61.4,303.98c0,105.38-20.66,207.65-61.4,303.98c-39.33,93-95.63,176.5-167.32,248.19
			c-71.69,71.69-155.19,127.98-248.19,167.31C1493.46,1694.46,1391.19,1715.12,1285.81,1715.12z M1285.81,319.28
			c-339.09,0-614.96,275.87-614.96,614.96c0,339.09,275.87,614.96,614.96,614.96c339.09,0,614.96-275.87,614.96-614.96
			C1900.77,595.15,1624.9,319.28,1285.81,319.28z"/>
	</g>
	<defs>
		<filter id="Adobe_OpacityMaskFilter_2_" filterUnits="userSpaceOnUse" x="701" y="1268.4" width="1177.28" height="232.92">
			<feFlood  style="flood-color:white;flood-opacity:1" result="back"/>
			<feBlend  in="SourceGraphic" in2="back" mode="normal"/>
		</filter>
	</defs>
	<mask maskUnits="userSpaceOnUse" x="701" y="1268.4" width="1177.28" height="232.92" id="SVGID_5_">
		<g class="st7">
			<defs>
				<filter id="Adobe_OpacityMaskFilter_3_" filterUnits="userSpaceOnUse" x="701" y="1268.4" width="1177.28" height="232.92">
					<feFlood  style="flood-color:white;flood-opacity:1" result="back"/>
					<feBlend  in="SourceGraphic" in2="back" mode="normal"/>
				</filter>
			</defs>
			<mask maskUnits="userSpaceOnUse" x="701" y="1268.4" width="1177.28" height="232.92" id="SVGID_5_">
				<g class="st8">
				</g>
			</mask>
			<linearGradient id="SVGID_6_" gradientUnits="userSpaceOnUse" x1="1289.6392" y1="1306.5242" x2="1289.6392" y2="1636.9126">
				<stop  offset="0" style="stop-color:#000000"/>
				<stop  offset="1" style="stop-color:#FFFFFF"/>
			</linearGradient>
			<rect x="701" y="1268.4" class="st9" width="1177.28" height="232.92"/>
		</g>
	</mask>
	<linearGradient id="SVGID_7_" gradientUnits="userSpaceOnUse" x1="1289.6392" y1="1306.5242" x2="1289.6392" y2="1636.9126">
		<stop  offset="0" style="stop-color:#40D5E6"/>
		<stop  offset="1" style="stop-color:#5577FF"/>
	</linearGradient>
	<rect x="701" y="1268.4" class="st10" width="1177.28" height="232.92"/>
	<g>
		<defs>
			<filter id="Adobe_OpacityMaskFilter_4_" filterUnits="userSpaceOnUse" x="326.55" y="1549.19" width="959.25" height="165.92">
				<feFlood  style="flood-color:white;flood-opacity:1" result="back"/>
				<feBlend  in="SourceGraphic" in2="back" mode="normal"/>
			</filter>
		</defs>
		<mask maskUnits="userSpaceOnUse" x="326.55" y="1549.19" width="959.25" height="165.92" id="SVGID_8_">
			<g class="st11">
				<defs>
					<filter id="Adobe_OpacityMaskFilter_5_" filterUnits="userSpaceOnUse" x="326.55" y="1549.19" width="959.25" height="165.92">
						<feFlood  style="flood-color:white;flood-opacity:1" result="back"/>
						<feBlend  in="SourceGraphic" in2="back" mode="normal"/>
					</filter>
				</defs>
				<mask maskUnits="userSpaceOnUse" x="326.55" y="1549.19" width="959.25" height="165.92" id="SVGID_8_">
					<g class="st12">
					</g>
				</mask>
				<linearGradient id="SVGID_9_" gradientUnits="userSpaceOnUse" x1="326.5527" y1="1632.1509" x2="1285.8076" y2="1632.1509">
					<stop  offset="0" style="stop-color:#000000"/>
					<stop  offset="1" style="stop-color:#FFFFFF"/>
				</linearGradient>
				<rect x="326.55" y="1549.19" class="st13" width="959.25" height="165.92"/>
			</g>
		</mask>
		<linearGradient id="SVGID_10_" gradientUnits="userSpaceOnUse" x1="326.5527" y1="1632.1509" x2="1285.8076" y2="1632.1509">
			<stop  offset="0" style="stop-color:#40D5E6"/>
			<stop  offset="1" style="stop-color:#5577FF"/>
		</linearGradient>
		<rect x="326.55" y="1549.19" class="st14" width="959.25" height="165.92"/>
	</g>
	<g>
		<rect x="852.1" y="662.61" class="st15" width="191.27" height="19.58"/>
	</g>
	<g>
		<rect x="1096.9" y="810.08" class="st15" width="138.1" height="19.58"/>
	</g>
	<g>
		<rect x="1256.51" y="810.08" class="st16" width="91.64" height="19.58"/>
	</g>
	<g>
		<rect x="1443.73" y="1402.13" class="st16" width="91.64" height="19.58"/>
	</g>
	<g>
		<rect x="854.27" y="1180.92" class="st16" width="91.64" height="19.58"/>
	</g>
	<g>
		<rect x="1366.25" y="810.08" class="st15" width="221.26" height="19.58"/>
	</g>
	<g>
		<rect x="854.27" y="1106.65" class="st15" width="142.17" height="19.58"/>
	</g>
	<g>
		<rect x="1236.29" y="1254.66" class="st15" width="142.17" height="19.58"/>
	</g>
	<g>
		<rect x="1052.45" y="1254.66" class="st15" width="86.79" height="19.58"/>
	</g>
	<g>
		<rect x="854.27" y="1254.66" class="st16" width="171.96" height="19.58"/>
	</g>
	<g>
		<rect x="854.27" y="1328.39" class="st15" width="94.85" height="19.58"/>
	</g>
	<g>
		<rect x="1080.58" y="662.61" class="st17" width="135.78" height="19.58"/>
	</g>
	<g>
		<rect x="1080.58" y="883.81" class="st16" width="135.78" height="19.58"/>
	</g>
	<g>
		<rect x="1012.69" y="957.55" class="st15" width="58.01" height="19.58"/>
	</g>
	<g>
		<rect x="954.67" y="1032.37" class="st17" width="130.31" height="19.58"/>
	</g>
	<g>
		<rect x="1104.68" y="1032.37" class="st16" width="179.89" height="19.58"/>
	</g>
	<g>
		<rect x="854.27" y="958.09" class="st16" width="135.78" height="19.58"/>
	</g>
	<g>
		<rect x="854.27" y="1032.37" class="st16" width="80.57" height="19.58"/>
	</g>
	<g>
		<rect x="1098.05" y="958.09" class="st18" width="76.01" height="19.58"/>
	</g>
	<g>
		<rect x="856.55" y="1402.13" class="st18" width="76.01" height="19.58"/>
	</g>
	<g>
		<rect x="853.73" y="810.08" class="st17" width="135.78" height="19.58"/>
	</g>
	<g>
		<rect x="973.8" y="1180.92" class="st17" width="135.78" height="19.58"/>
	</g>
	<g>
		<rect x="975.48" y="1328.39" class="st17" width="135.78" height="19.58"/>
	</g>
	<g>
		<rect x="1216.69" y="1328.39" class="st17" width="135.78" height="19.58"/>
	</g>
	<g>
		<rect x="853.73" y="883.81" class="st17" width="193.56" height="19.58"/>
	</g>
	<g>
		<rect x="1277.03" y="1402.13" class="st17" width="135.78" height="19.58"/>
	</g>
	<g>
		<rect x="1252.92" y="662.61" class="st16" width="172.99" height="19.58"/>
	</g>
	<g>
		<rect x="961.25" y="1402.13" class="st16" width="172.99" height="19.58"/>
	</g>
	<g>
		<rect x="1564.46" y="1402.13" class="st16" width="172.99" height="19.58"/>
	</g>
	<g>
		<rect x="1537.83" y="1254.66" class="st16" width="172.99" height="19.58"/>
	</g>
	<g>
		<rect x="1489.55" y="883.81" class="st16" width="172.99" height="19.58"/>
	</g>
	<g>
		<rect x="1166.42" y="1254.66" class="st18" width="37.29" height="19.58"/>
	</g>
	<g>
		<rect x="1553.85" y="662.61" class="st18" width="172.99" height="19.58"/>
	</g>
	<g>
		<rect x="1356.46" y="883.81" class="st18" width="101.43" height="19.58"/>
	</g>
	<g>
		<rect x="1277.03" y="1182.01" class="st18" width="101.43" height="19.58"/>
	</g>
	<g>
		<rect x="1457.89" y="662.61" class="st15" width="63.32" height="19.58"/>
	</g>
	<g>
		<rect x="1252.92" y="883.81" class="st15" width="63.32" height="19.58"/>
	</g>
	<g>
		<rect x="852.1" y="736.35" class="st16" width="99.06" height="19.58"/>
	</g>
	<g>
		<rect x="1116.42" y="1107.19" class="st16" width="78.21" height="19.58"/>
	</g>
	<g>
		<rect x="975.48" y="736.35" class="st16" width="31.99" height="19.58"/>
	</g>
	<g>
		<rect x="1378.47" y="1328.39" class="st15" width="264.38" height="19.58"/>
	</g>
	<g>
		<rect x="1030.97" y="736.35" class="st18" width="32.64" height="19.58"/>
	</g>
	<g>
		<rect x="1521.21" y="736.35" class="st16" width="86.5" height="19.58"/>
	</g>
	<g>
		<rect x="1607.71" y="810.08" class="st18" width="86.5" height="19.58"/>
	</g>
	<g>
		<rect x="1414.64" y="1254.66" class="st18" width="86.5" height="19.58"/>
	</g>
	<g>
		<rect x="1162.94" y="1402.13" class="st18" width="86.5" height="19.58"/>
	</g>
	<g>
		<rect x="1314.28" y="736.35" class="st16" width="184.04" height="19.58"/>
	</g>
	<g>
		<rect x="1142.97" y="1182.01" class="st16" width="107.52" height="19.58"/>
	</g>
	<g>
		<rect x="1136.06" y="1328.39" class="st16" width="53.76" height="19.58"/>
	</g>
	<g>
		<rect x="1224.85" y="736.35" class="st17" width="63.32" height="19.58"/>
	</g>
	<g>
		<rect x="1011.71" y="810.08" class="st18" width="63.32" height="19.58"/>
	</g>
	<g>
		<rect x="1024.33" y="1107.19" class="st18" width="63.32" height="19.58"/>
	</g>
	<g>
		<rect x="1090.37" y="736.35" class="st16" width="110.32" height="19.58"/>
	</g>
	<g>
		<g>
			<g>
				<path class="st19" d="M827.86,1478.53c-0.02-0.01-0.05-0.01-0.08-0.01C828.13,1478.67,828.18,1478.69,827.86,1478.53z"/>
			</g>
		</g>
	</g>
	<linearGradient id="SVGID_11_" gradientUnits="userSpaceOnUse" x1="1602.8896" y1="493.2166" x2="1643.9423" y2="493.2166">
		<stop  offset="0" style="stop-color:#FFAE70"/>
		<stop  offset="1" style="stop-color:#FFD970"/>
	</linearGradient>
	<polygon class="st20" points="1612.51,503.19 1643.94,503.19 1634.32,483.24 1602.89,483.24 	"/>
	<linearGradient id="SVGID_12_" gradientUnits="userSpaceOnUse" x1="1588.1805" y1="493.2166" x2="1605.292" y2="493.2166">
		<stop  offset="0" style="stop-color:#FFAE70"/>
		<stop  offset="1" style="stop-color:#FFD970"/>
	</linearGradient>
	<polygon class="st21" points="1597.8,503.19 1605.29,503.19 1595.67,483.24 1588.18,483.24 	"/>
	<linearGradient id="SVGID_13_" gradientUnits="userSpaceOnUse" x1="1484.9795" y1="474.4402" x2="1616.4814" y2="474.4402">
		<stop  offset="0" style="stop-color:#FFAE70"/>
		<stop  offset="1" style="stop-color:#FFD970"/>
	</linearGradient>
	<polygon class="st22" points="1489.2,479.43 1616.48,479.43 1612.26,469.45 1484.98,469.45 	"/>
	
		<rect x="2134.75" y="996.35" transform="matrix(-1 -1.224647e-16 1.224647e-16 -1 4369.6152 1999.7168)" class="st23" width="100.11" height="7.02"/>
	
		<rect x="2134.75" y="1009.58" transform="matrix(-1 -1.224647e-16 1.224647e-16 -1 4369.6152 2048.6523)" class="st23" width="100.11" height="29.5"/>
	
		<rect x="2087.73" y="1049" transform="matrix(-1 -1.224647e-16 1.224647e-16 -1 4234.5186 2102.4004)" class="st23" width="59.06" height="4.41"/>
	
		<rect x="2087.73" y="1055.33" transform="matrix(-1 -1.224647e-16 1.224647e-16 -1 4234.5186 2122.6074)" class="st23" width="59.06" height="11.94"/>
	
		<rect x="2117.67" y="951.29" transform="matrix(-1 -1.224647e-16 1.224647e-16 -1 4239.748 1985.248)" class="st23" width="4.41" height="82.66"/>
	
		<rect x="837.67" y="388.07" transform="matrix(-1 -1.224647e-16 1.224647e-16 -1 1754.1884 790.417)" class="st24" width="78.85" height="14.28"/>
	
		<rect x="837.67" y="381.4" transform="matrix(-1 -1.224647e-16 1.224647e-16 -1 1754.1884 765.4888)" class="st24" width="78.85" height="2.69"/>
	<g>
		<polygon class="st18" points="1619.55,669.51 1721.96,567.11 2142.67,567.11 2142.67,561.88 1719.79,561.88 1615.86,665.82 		"/>
	</g>
	<linearGradient id="SVGID_14_" gradientUnits="userSpaceOnUse" x1="1289.6392" y1="1303.6779" x2="1289.6392" y2="1688.314">
		<stop  offset="0" style="stop-color:#40D5E6"/>
		<stop  offset="1" style="stop-color:#4B69E0"/>
	</linearGradient>
	<rect x="701" y="1497.72" class="st25" width="1177.28" height="232.92"/>
	<g>
		<polygon class="st17" points="968.73,903.56 972.42,899.87 776.73,704.17 406.36,704.17 406.36,709.4 774.57,709.4 		"/>
	</g>
	<g>
		<polygon class="st16" points="1358.67,668.16 1362.36,664.46 1197.2,499.3 964.91,499.3 964.91,504.52 1195.03,504.52 		"/>
	</g>
	<linearGradient id="SVGID_15_" gradientUnits="userSpaceOnUse" x1="1548.9174" y1="1289.4419" x2="1548.9174" y2="1606.5178">
		<stop  offset="0" style="stop-color:#40D5E6"/>
		<stop  offset="1" style="stop-color:#4B69E0"/>
	</linearGradient>
	<polygon class="st26" points="1878.28,1730.64 1878.28,1497.72 1449.84,1497.72 1219.55,1728.01 	"/>
	<g>
		<g>
			<rect x="1914.43" y="426.85" class="st27" width="37.14" height="112.81"/>
		</g>
		<g>
			<path class="st28" d="M2077.05,481.2h-288.09c-9.01,0-16.31-7.3-16.31-16.31V271.26c0-9.01,7.3-16.31,16.31-16.31h288.09
				c9.01,0,16.31,7.3,16.31,16.31v193.62C2093.36,473.89,2086.06,481.2,2077.05,481.2z"/>
		</g>
		<g>
			<rect x="1785.21" y="267.86" class="st24" width="295.59" height="177.88"/>
		</g>
		
			<rect x="1849.46" y="535.41" transform="matrix(-1 -1.224647e-16 1.224647e-16 -1 3866.0068 1079.3291)" class="st28" width="167.09" height="8.51"/>
		
			<rect x="1970.11" y="321.84" transform="matrix(-1 -1.224647e-16 1.224647e-16 -1 4035.2244 753.5137)" class="st29" width="95" height="109.83"/>
		
			<rect x="1857.54" y="321.84" transform="matrix(-1 -1.224647e-16 1.224647e-16 -1 3812.9727 657.3775)" class="st29" width="97.88" height="13.69"/>
		
			<rect x="1857.54" y="349.95" transform="matrix(-1 -1.224647e-16 1.224647e-16 -1 3812.9727 713.6001)" class="st29" width="97.88" height="13.69"/>
		
			<rect x="1857.54" y="375.19" transform="matrix(-1 -1.224647e-16 1.224647e-16 -1 3812.9727 806.8652)" class="st29" width="97.88" height="56.48"/>
		
			<rect x="1802.18" y="318.72" transform="matrix(-1 -1.224647e-16 1.224647e-16 -1 3645.8896 750.3901)" class="st29" width="41.53" height="112.95"/>
		
			<rect x="1803.14" y="281.56" transform="matrix(-1 -1.224647e-16 1.224647e-16 -1 3869.2244 591.3183)" class="st29" width="262.94" height="28.21"/>
	</g>
	<g>
		<path class="st28" d="M1013.76,474.77h131.61c8.62,0,15.61-6.99,15.61-15.61V260.18c0-8.62-6.99-15.61-15.61-15.61h-131.61
			c-8.62,0-15.61,6.99-15.61,15.61v198.98C998.15,467.78,1005.14,474.77,1013.76,474.77z"/>
		
			<rect x="1007.15" y="255.22" transform="matrix(-1 -1.224647e-16 1.224647e-16 -1 2159.1357 699.3477)" class="st24" width="144.83" height="188.91"/>
		
			<rect x="1016.89" y="268.8" transform="matrix(-1 -1.224647e-16 1.224647e-16 -1 2159.8223 562.7529)" class="st29" width="126.05" height="25.15"/>
		
			<rect x="1091.05" y="303.7" transform="matrix(-1 -1.224647e-16 1.224647e-16 -1 2233.9902 730.6655)" class="st29" width="51.88" height="123.27"/>
		
			<rect x="1016.89" y="303.7" transform="matrix(-1 -1.224647e-16 1.224647e-16 -1 2098.3025 621.6768)" class="st29" width="64.53" height="14.28"/>
		
			<rect x="1016.89" y="328.38" transform="matrix(-1 -1.224647e-16 1.224647e-16 -1 2098.3025 671.0342)" class="st29" width="64.53" height="14.28"/>
		
			<rect x="1016.89" y="353.06" transform="matrix(-1 -1.224647e-16 1.224647e-16 -1 2098.3025 720.3916)" class="st29" width="64.53" height="14.28"/>
		
			<rect x="1016.89" y="377.74" transform="matrix(-1 -1.224647e-16 1.224647e-16 -1 2098.3025 804.7011)" class="st29" width="64.53" height="49.23"/>
	</g>
	<g>
		<path class="st27" d="M465.02,672.68h253.83V511.76c0-6.32-5.12-11.44-11.44-11.44H476.46c-6.32,0-11.44,5.12-11.44,11.44V672.68z
			"/>
		
			<rect x="472.11" y="509.5" transform="matrix(-1 -1.224647e-16 1.224647e-16 -1 1183.8739 1173.0098)" class="st24" width="239.66" height="154.01"/>
		<path class="st28" d="M452.78,672.68h278.31v2.67c0,5.52-4.47,9.99-9.99,9.99H462.77c-5.52,0-9.99-4.47-9.99-9.99V672.68z"/>
		
			<rect x="482.13" y="520.69" transform="matrix(-1 -1.224647e-16 1.224647e-16 -1 1183.627 1062.8022)" class="st29" width="219.37" height="21.41"/>
		
			<rect x="626.29" y="554.21" transform="matrix(-1 -1.224647e-16 1.224647e-16 -1 1327.7852 1206.522)" class="st29" width="75.21" height="98.11"/>
		
			<rect x="541.44" y="554.21" transform="matrix(-1 -1.224647e-16 1.224647e-16 -1 1158.0839 1206.522)" class="st29" width="75.21" height="98.11"/>
		
			<rect x="482.13" y="554.21" transform="matrix(-1 -1.224647e-16 1.224647e-16 -1 1010.12 1122.4297)" class="st29" width="45.86" height="14.02"/>
		
			<rect x="482.13" y="575.88" transform="matrix(-1 -1.224647e-16 1.224647e-16 -1 1010.12 1165.7739)" class="st29" width="45.86" height="14.02"/>
		
			<rect x="482.13" y="597.55" transform="matrix(-1 -1.224647e-16 1.224647e-16 -1 1010.12 1249.8662)" class="st29" width="45.86" height="54.77"/>
	</g>
	<g>
		<polygon class="st30" points="561.16,919.58 504.67,886.97 504.67,908.47 420.69,908.47 420.69,930.69 504.67,930.69 
			504.67,952.2 		"/>
		<polygon class="st30" points="420.69,848.05 477.18,880.66 477.18,859.16 561.16,859.16 561.16,836.94 477.18,836.94 
			477.18,815.43 		"/>
	</g>
	<g>
		<polygon class="st30" points="1386.59,454.81 1344.26,430.37 1344.26,446.49 1281.32,446.49 1281.32,463.14 1344.26,463.14 
			1344.26,479.26 		"/>
		<polygon class="st30" points="1281.32,401.2 1323.65,425.64 1323.65,409.53 1386.59,409.53 1386.59,392.87 1323.65,392.87 
			1323.65,376.76 		"/>
	</g>
	<g>
		<g>
			<path class="st24" d="M1958.49,842.79c-5.62-0.43-10.84-2.52-14.87-5.98c-4.57-3.93-7.08-9.16-7.07-14.73
				c-0.78-10.96-4.19-22.29-7.01-30.05c-13.42-10.7-20.65-27.24-19.35-44.35c2.16-28.43,27.04-49.8,55.46-47.65
				c28.43,2.16,49.8,27.04,47.65,55.47c-1.17,15.48-9.11,29.42-21.8,38.36c-3.86,10.49-6.17,20.09-6.89,28.55
				c-0.13,11.38-10.95,20.56-24.18,20.47C1959.79,842.86,1959.14,842.83,1958.49,842.79z M1965.34,704.24
				c-26.1-1.98-48.95,17.65-50.93,43.75c-1.21,15.9,5.6,31.26,18.21,41.07l0.48,0.37l0.21,0.57c2.96,8.05,6.65,20.11,7.47,31.85
				l0.01,0.16c-0.03,4.34,1.96,8.45,5.6,11.58c3.74,3.21,8.75,5.01,14.1,5.04c10.92,0.07,19.86-7.26,19.92-16.35v-0.08l0.01-0.08
				c0.75-9.03,3.23-19.25,7.37-30.37l0.23-0.63l0.55-0.38c11.95-8.19,19.43-21.16,20.53-35.58
				C2011.07,729.06,1991.45,706.22,1965.34,704.24z"/>
		</g>
		<g>
			<polygon class="st24" points="1948.91,825.15 1942.14,768.81 1953.88,778.52 1961.17,770.44 1967.47,778.02 1978.44,768.72 
				1971.77,825.16 1967.57,824.66 1972.98,778.89 1966.94,784.01 1961.04,776.9 1954.31,784.37 1947.6,778.81 1953.11,824.65 			"/>
		</g>
		<g>
			
				<rect x="1942.07" y="837.71" transform="matrix(1 6.710545e-03 -6.710545e-03 1 5.7152 -13.1363)" class="st24" width="36.67" height="14.78"/>
		</g>
		<g>
			
				<rect x="1936.24" y="822.61" transform="matrix(1 6.709597e-03 -6.709597e-03 1 5.6433 -13.1352)" class="st24" width="48.47" height="23.79"/>
		</g>
	</g>
	<g>
		<path class="st31" d="M2075.5,1694.25c-1.07,7.51-46.21,39.13-55.11,45.45c-7.14,5.07-13.34,7.4-24.13,11.45c0,0,0,0-0.01,0
			c-24.51,6.45-178.29,52.33-178.29,52.33c-0.4-1.56-0.62-2.92-1.53-4.68c-5.74,2.29-11.65,3.77-15.4,4.95
			c-5.73,1.79-51.17,3.22-60.47,5.01s-27.91,4.65-35.43-2.5c-7.51-7.16,4.65-22.54,15.03-26.48c10.38-3.94,48.31-5.01,55.11-5.73
			c6.8-0.72,15.75-3.22,20.04-1.79c1.36,0.45,7.35-1.31,14.93-3.93c-0.19-2.79-0.23-4.54-0.23-4.54l40.38-11.64l-7.48-71.5
			c0,0,17.57-66.2,87.76-15.7c0,0,15.66,4.61,21.03,6.04c0.38,0.1,0.98,0.11,1.8,0.05c10.71-0.8,56.72-14.72,73.35-14.72
			c17.89,0,23.62-1.07,30.06,2.15C2063.33,1661.68,2076.57,1686.73,2075.5,1694.25z"/>
		<path class="st31" d="M2003.59,1806.25c-7.51,7.16-26.12,4.29-35.43,2.5c-9.3-1.79-54.75-3.22-60.47-5.01
			c-5.72-1.79-16.46-4.29-23.97-9.3c-0.61-0.4-1.99-1-4.02-1.76c0,0,0,0-0.01,0.01l-11.36,8.2l-158.01-50.3
			c-9.46-2.59-16.98-6.54-21.98-10.89c-8.23-7.16-54.03-37.93-55.11-45.45c-1.07-7.52,12.17-32.56,18.61-35.78
			c6.44-3.22,12.17-2.15,30.06-2.15s69.78,16.1,75.15,14.67c2.44-0.65,7.49-3.22,12.28-5.84c5.74-3.13,11.1-6.33,11.1-6.33
			c76.85-34.31,85.41,21.83,85.41,21.83l-4.55,69.3c0,0,6.41,3.18,14.74,7.14l38.09,10.76l-4.99,3.6c2.15,0.69,3.68,1.01,4.3,0.81
			c4.29-1.43,13.24,1.07,20.04,1.79c6.8,0.72,44.73,1.79,55.11,5.73C1998.94,1783.7,2011.11,1799.09,2003.59,1806.25z"/>
		<path class="st32" d="M1769.32,1665.15c5.3,0.37,41.11,21.11,49.61,26.07c-12.91-6.75-61.89-20.23-61.89-20.23
			C1759.48,1670.33,1764.54,1667.76,1769.32,1665.15z"/>
		<path class="st32" d="M1953.49,1671.04c0,0-61.69,14.97-72.98,21.23c0.51-0.37,32.51-24.69,49.31-27.93c0,0,16.5,5.21,21.87,6.64
			C1952.07,1671.08,1952.67,1671.1,1953.49,1671.04C1953.49,1671.04,1953.49,1671.04,1953.49,1671.04z"/>
		<path class="st33" d="M2003.59,1806.25c-7.51,7.16-26.12,4.29-35.43,2.5c-9.3-1.79-54.75-3.22-60.47-5.01
			c-1.65-0.51-3.7-1.09-5.98-1.76c0,0,0,0,0,0c-5.65-1.67-12.63-3.97-17.99-7.54c-0.61-0.4-1.99-1-4.02-1.76l28.6-20.64l0.82-0.59
			c2.15,0.69,3.68,1.01,4.3,0.81c4.29-1.43,13.24,1.07,20.04,1.79c6.8,0.72,44.73,1.79,55.11,5.73
			C1998.94,1783.7,2011.11,1799.09,2003.59,1806.25z"/>
		<path class="st34" d="M2003.59,1806.25c-7.51,7.16-26.12,4.29-35.43,2.5c-9.3-1.79-54.75-3.22-60.47-5.01
			c-1.65-0.51-3.7-1.09-5.98-1.76c0,0,0,0,0,0c0,0-0.01,0-0.01,0s12.51-12.38,6.6-29.94l0.82-0.59c2.15,0.69,3.68,1.01,4.3,0.81
			c4.29-1.43,13.24,1.07,20.04,1.79c6.8,0.72,44.73,1.79,55.11,5.73C1998.94,1783.7,2011.11,1799.09,2003.59,1806.25z"/>
		<path class="st35" d="M1785.01,1680.94c0.08,0.19,0.06,0.33-0.06,0.42C1784.24,1681.9,1784.36,1681.67,1785.01,1680.94z"/>
		<path class="st36" d="M1991.82,1597.27c-0.6-1.21-33.2-52.48-42.02-75.86c-8.83-23.38-30.06-34.12-40.08-37.46
			c-3.58-1.19-9.94-3.27-16.66-5.44c-12.1-3.92-25.32-8.16-25.32-8.16h-41.75c0,0-14.46,4.84-29.82,10.23
			c-0.01,0.01-0.02,0.01-0.02,0.01c-14.15,4.96-29.06,10.38-34.09,12.9c-10.5,5.25-28.15,42.7-31.73,47
			c-3.58,4.29-31.1,55.3-35.07,74.91c-3.08,15.23,87.29,59.83,89.75,65.54c2.86-3.17,16.02-15.8,16.02-15.8s-4.21-2.65-10.15-6.55
			c24.21,1.11,83.36-0.98,91.85-0.55c1.71,0.09,3.56,0.03,5.47-0.12c-0.01,0-0.01,0.01-0.01,0.01c2.63,1.91,19.57,16.87,19.57,16.87
			s41.75-17.33,60.95-36.74C1995.97,1610.51,1994.83,1603.35,1991.82,1597.27z M1754.45,1631.2c-8.95-10.74-21.26-17.23-18.16-22
			c3.1-4.77,29.34-50.1,29.34-50.1s13.6,29.82,17.42,45.33c3.82,15.5,3.52,22.6,1.91,27.43c-1.44,4.33-2.6,7.27-3.9,20.15
			C1770.35,1644.7,1758.55,1636.12,1754.45,1631.2z M1939.03,1626.07c-3.51,3.99-17.39,12.81-29.87,20.07
			c-0.95-8.65-2.38-22.27-2.54-27.16c-0.24-7.39,2.86-28.63,6.68-36.74c3.82-8.11,6.44-30.3,6.44-30.3s31.61,42.94,36.62,47.47
			C1961.37,1603.95,1950.88,1612.61,1939.03,1626.07z"/>
		<g>
			<path class="st33" d="M1851.84,1355.61c0,0,32.65,5.14,27.68,56.23c-4.97,51.08-33.79,46.89-35.71,46.84
				c-1.93-0.05-28.93,0.93-31.03-61.44C1812.77,1397.24,1811.85,1351.13,1851.84,1355.61z"/>
		</g>
		<g>
			<path class="st33" d="M1880.02,1397.41c0,0,3.58-3.82,4.89,0.05c1.31,3.87-4.88,21.11-5.1,21.92c0,0-0.65,1.5-1.51,0.67
				C1877.44,1419.22,1880.02,1397.41,1880.02,1397.41z"/>
		</g>
		<g>
			<path class="st33" d="M1813.65,1396.76c0,0-3.5-3.89-4.89-0.05c-1.39,3.84,4.41,21.2,4.67,22.01c0,0,0.62,1.51,1.5,0.7
				C1815.81,1418.62,1813.65,1396.76,1813.65,1396.76z"/>
		</g>
		<g>
			<path class="st37" d="M1880,1405.24l-4.67,6.25c0,0,0.13-13.7-0.62-15.85c-0.75-2.15-1.9-8.71-2.52-10.26
				c-0.63-1.55-28.04-9.23-52.25,2.24c0,0,1.06,9.85-1.26,10.73c-2.32,0.88-1.18,16.04-1.18,16.04l-3.84-4.34
				c0,0-5.88-39.3-4.43-43.4c1.45-4.1,6.08-28.72,55.75-14.1c0,0,15.48-3.28,18.59,7.41C1886.68,1370.67,1880,1405.24,1880,1405.24z
				"/>
		</g>
		<path class="st38" d="M1803.8,1731.89c0,0-49.98-29.95-71.81-34.66c-20.63-4.45-28.15-12.17-28.15-12.17s32.8,0,54.63,15.51
			C1773.3,1711.1,1803.8,1731.89,1803.8,1731.89z"/>
		<path class="st38" d="M1848.2,1752.77c0,0,86.93-45.65,122.42-55.55c20.33-5.67,28.15-12.17,28.15-12.17s-53.74,5.25-86.42,24.93
			C1896.77,1719.37,1848.2,1752.77,1848.2,1752.77z"/>
		<path class="st33" d="M1816.44,1798.8c-5.74,2.29-11.65,3.77-15.4,4.95c-5.73,1.79-51.17,3.22-60.47,5.01s-27.91,4.65-35.43-2.5
			c-7.51-7.16,4.65-22.54,15.03-26.48c10.38-3.94,48.31-5.01,55.11-5.73c6.8-0.72,15.75-3.22,20.04-1.79
			c1.36,0.45,7.35-1.31,14.93-3.93C1810.46,1772.87,1816.44,1798.8,1816.44,1798.8z"/>
		<path class="st31" d="M1848.2,1794.47l85.46-25.29l-16.9-5.16C1916.76,1764.02,1848.46,1788.78,1848.2,1794.47z"/>
		<polygon class="st38" points="1848.2,1794.47 1888.19,1782.27 1860.46,1798.38 		"/>
		<path class="st39" d="M1820.73,1692.27c-0.08-0.05-0.72-0.42-1.8-1.06C1819.65,1691.59,1820.25,1691.94,1820.73,1692.27z"/>
		<path class="st34" d="M1801.04,1803.74c-5.73,1.79-51.17,3.22-60.47,5.01s-27.91,4.65-35.43-2.5
			c-7.51-7.16,4.65-22.54,15.03-26.48c10.38-3.94,48.31-5.01,55.11-5.73c6.8-0.72,15.75-3.22,20.04-1.79
			C1795.31,1772.25,1783.84,1789.79,1801.04,1803.74z"/>
		<path class="st36" d="M1893.06,1478.52c0,0-13.69,60.16-46.3,60.16c-32.6,0-50.62-58.08-50.62-58.08s0.01,0,0.02-0.01
			c15.36-5.38,29.82-10.23,29.82-10.23h41.75C1867.74,1470.36,1880.96,1474.6,1893.06,1478.52z"/>
		<path class="st39" d="M1772.79,1685.06l-13.17-74.91l170.26-3.94l-10.97,73.71c0,0-54.35,19.89-72.79,31.5
			C1846.12,1711.43,1799.51,1692.27,1772.79,1685.06z"/>
		<path class="st40" d="M1856.15,1655.33c0,6.19-4.27,11.21-9.54,11.21c-5.27,0-9.54-5.02-9.54-11.21s4.27-11.21,9.54-11.21
			C1851.87,1644.11,1856.15,1649.13,1856.15,1655.33z"/>
		<path class="st33" d="M1868.16,1470.5c-0.01-0.05-0.03-0.09-0.05-0.14c-2.03-4.55-1.04-26.72-1.04-26.72s-41.58-10.58-40.4-2.49
			c1.19,8.09-3.58,30.18-3.58,30.18l-21.33,7.3c0,0,22.73,61.03,48.85,53.16c26.12-7.87,35.99-55.36,35.99-55.36L1868.16,1470.5z"/>
		<path class="st41" d="M1826.61,1449.36c0,0,7.36,9.42,18.99,9.42c7.65,0,13.69-2.67,21.3-10.1c0,0-3.85,14.64-21.25,15.95
			C1845.66,1464.63,1832.37,1465.46,1826.61,1449.36z"/>
	</g>
	<g>
		<polygon class="st17" points="1718.62,1004.05 1547.72,1004.05 1547.72,1127.92 1547.72,1154.01 1573.81,1127.92 1718.62,1127.92 
					"/>
	</g>
	<g>
		<g>
			<path class="st42" d="M1463.28,1723.08c0,0,1.78,14.52,4.14,20.93c2.36,6.41,15.17,21.19,9.76,35.4
				c-5.87,15.41-31.49,0.56-41.94-4.14c-10.45-4.7-8.07-13.22-9.18-23.67c-1.11-10.45-6.21-10.73-4.33-18.07
				c1.88-7.34,13.31-21.4,13.31-21.4L1463.28,1723.08z"/>
		</g>
		<g>
			<g>
				<path class="st33" d="M1439.97,1704.52c0,0-6.56,9.18-6.38,9.43c0.18,0.25,28.09,17.24,30.04,11.73
					c1.54-4.38,2.19-10.72,2.19-10.72L1439.97,1704.52z"/>
			</g>
		</g>
		<g>
			<path class="st42" d="M1345.36,1733.35c0,0-8.52,7.46-16.16,18.93c-7.65,11.47-27.94,12.08-28.81,27.73
				c-0.87,15.66,27.6,16.14,42.54,11.04c14.95-5.1,17.2-20.39,26.24-24.21c9.04-3.82,13.73-6.92,13.03-14.38s-5.7-19.58-5.7-19.58
				s-5.61,1.79-8.92,2.16C1364.29,1735.4,1353.18,1735.53,1345.36,1733.35z"/>
		</g>
		<g>
			<path class="st43" d="M1447.8,1309.16c0,0-5.73,34.06-10.34,56.56c0,0,0,0,0,0c-1.87,9.12-3.56,16.35-4.61,18.62
				c-1.32,2.86-12.07,14.41-25.23,27.95c-23.09,23.77-53.59,53.7-53.59,53.7l-11.92-22.64c0,0,27.09-31.76,45.46-52.96
				c8.5-9.81,15.13-17.35,16.35-18.44c3.84-3.44,8.3-37.29,14.56-65.18c6.26-27.89,18.82-43.3,18.82-43.3L1447.8,1309.16z"/>
		</g>
		<g>
			<path class="st33" d="M1407.61,1412.3c-23.09,23.77-53.59,53.7-53.59,53.7l-11.92-22.64c0,0,27.09-31.76,45.46-52.96
				C1393.19,1393.17,1403.53,1399.75,1407.61,1412.3z"/>
		</g>
		<g>
			<path class="st33" d="M1346.7,1722.92l-1.34,10.43c0,0,14.82,5.24,31.15-0.46l0.33-9.27L1346.7,1722.92z"/>
		</g>
		<g>
			<path class="st43" d="M1557.07,1461.4c0.85,3.03-156.96,0-156.96,0s43.66-31.78,46.49-40.26c2.83-8.49-11.12-59.42-12.94-75.99
				c-1.46-13.26-5.1-72.59,3.64-81.65c9.14-9.47,42.04-19.4,42.04-19.4l47.97,1.78c0,0,7.92,1.66,13.58,4.28
				c5.66,2.63,38.02,14.15,43.28,30.32c5.25,16.17-32.29,68.15-32.29,68.15s-0.07,2.34-0.19,6.17c0,0,0,0,0,0
				c-0.15,5.11-0.36,12.86-0.56,21.28c-0.25,10.9-0.47,22.9-0.47,31.67C1550.64,1428.35,1556.21,1458.36,1557.07,1461.4z"/>
		</g>
		<g>
			<path class="st44" d="M1557.07,1461.4c0,0,21.47,31.53,21.77,53.05c0.3,21.52-38.09,93.61-43.9,103.93
				c-17.47,31-65.37,97.88-65.37,97.88s-8.26-0.21-34.03-10.21c0,0,31.87-88.33,35.91-97.51c17.13-38.89,26.69-66.48,20.93-73.15
				c-5.76-6.67-21.46-13.36-26.01-17.3c-4.55-3.94-83.77,14.97-92.07,17.12c-21.49,5.57-11.7,42.97-6.94,59.74
				c7.96,28.05,14.91,129.35,14.91,129.35s-15.31,6.52-40.95,1.01c0,0-50.35-182.91-51.97-201.1
				c-1.62-18.19-2.41-48.18,121.68-70.98L1557.07,1461.4z"/>
		</g>
		<g>
			<path class="st33" d="M1492.49,1139.87c0,0-41.64-9.39-32.13,43.01c9.51,52.4,19.52,56.52,44.65,45.67
				c25.12-10.84,22.87-44.42,24.13-60.88C1530.41,1151.21,1505.77,1140.44,1492.49,1139.87z"/>
		</g>
		<g>
			<path class="st33" d="M1481.47,1257.53c0,0,18.44,19.55,47.59,1.78c0,0-6.52-42.37-3.09-63c3.43-20.64-38.03,31.98-38.03,31.98
				c0.55,0.29,0.91,2.25,0.99,5.06c0.07,2.38-0.06,5.35-0.44,8.4C1487.64,1248.6,1485.51,1255.85,1481.47,1257.53z"/>
		</g>
		<g>
			<path class="st45" d="M1527.12,1194.56c0,0-1.07-16.51-7.1-17.03c-6.03-0.52-6.96,6.13-6.96,6.13l-6.09,1.15
				c0,0,1.92-14.47-4.1-17c-6.02-2.53-39.01,7.97-43.85,3.72c-4.83-4.25-2.56-33.6,6.18-37.62c8.74-4.02,32.88-13.02,50.57-1.05
				c0,0,13.79-1.57,15.83,9.55C1533.65,1153.55,1530.86,1186.29,1527.12,1194.56z"/>
		</g>
		<g>
			<path class="st41" d="M1488.5,1241.74c30.07-9.27,32.33-27.38,32.36-27.66c-9.9,17.01-31.93,19.26-31.93,19.26
				C1489,1235.72,1488.88,1238.69,1488.5,1241.74z"/>
		</g>
		<g>
			<path class="st33" d="M1541.36,1250.38c0,0-22.02,43.83-57.59,41c-35.57-2.83-6.06-46.89-4.45-47.29
				C1481.1,1243.64,1515.81,1234.99,1541.36,1250.38z"/>
		</g>
		<g>
			<path class="st43" d="M1382.05,1459.18c0,0,108.99,13.44,175.02,2.22l-126.17-15.76
				C1430.9,1445.63,1430.15,1448.85,1382.05,1459.18z"/>
		</g>
		<g>
			<path class="st33" d="M1463.56,1440.67l-8.12,4.11c0,0,1.85,12.9,6.3,16.8l9.11-2.32
				C1470.85,1459.26,1468.95,1445.11,1463.56,1440.67z"/>
		</g>
		<g>
			<path class="st43" d="M1589.68,1414.26c-1.62,1.88-23.05,10.5-47.25,19.82l0,0c-33.07,12.74-70.37,24.79-70.37,24.79l-8.49-18.2
				c0,0,39.06-21.23,65.46-36.11c12.47-7.03,22.11-12.65,23.47-13.95c4.24-4.04,5.34-10.52,2.22-21.83
				c-3.12-11.3-10.31-63.26-11.12-69.32c-0.81-6.06,2.02-22.23,17.18-23.04s22.87,3.47,22.87,3.47s3.81,1.58,6.64,38.37
				C1593.12,1355.04,1593.52,1409.81,1589.68,1414.26z"/>
		</g>
		<g>
			<path class="st46" d="M1551.67,1354.79C1551.67,1354.79,1551.67,1354.79,1551.67,1354.79c-0.15,5.11-0.36,12.87-0.56,21.28
				c-14.79-36.26-6.25-65.2-6.1-65.69C1543.41,1320.22,1551.55,1354.31,1551.67,1354.79z"/>
		</g>
		<g>
			<path class="st46" d="M1437.45,1365.72C1437.45,1365.72,1437.45,1365.72,1437.45,1365.72c-1.87,9.13-3.56,16.35-4.61,18.62
				c-5.05-24.46-0.51-55.76-0.51-55.76C1433.03,1343.54,1437.45,1365.72,1437.45,1365.72z"/>
		</g>
		<g>
			<path class="st33" d="M1542.42,1434.08L1542.42,1434.08c-33.07,12.74-71.57,25.18-71.57,25.18l-7.29-18.59
				c0,0,39.06-21.23,65.46-36.11C1529.02,1404.56,1538.62,1409.24,1542.42,1434.08z"/>
		</g>
		<g>
			<polygon class="st47" points="1461.21,1460.34 1306.3,1458.06 1384.52,1497.77 			"/>
		</g>
		<g>
			<polygon class="st48" points="1384.52,1497.77 1461.21,1468.06 1461.21,1460.34 1378.45,1490.19 			"/>
		</g>
		<g>
			<g>
				<path class="st33" d="M1457.2,1445.06c0,0-9.68-1.51-16.37-3.06c-5.18-1.21-18.04,0.46-21.32,3.78
					c-3.28,3.32-13.7,26.46-15.67,27.88c-1.97,1.41,1.01,4.68,4.47,3.04c0,0,3.18,10.13,11.02,6.34
					c7.85-3.79,13.17-12.07,17.28-13.53c4.11-1.46,28.03-8.81,28.03-8.81S1463.36,1442.6,1457.2,1445.06z"/>
			</g>
		</g>
		<g>
			<g>
				<path class="st33" d="M1421.87,1444.26c0,0-6.22,3-7.84,4.34c-1.62,1.34-8.2,6.26-9.79,7.42c-1.59,1.16,2.4,4.45,14.16-0.64
					C1430.16,1450.29,1421.87,1444.26,1421.87,1444.26z"/>
			</g>
		</g>
		<g>
			<polygon class="st48" points="1384.52,1497.77 1338.44,1371.97 1189.9,1374.39 1233.81,1490.33 			"/>
		</g>
		<g>
			<path class="st49" d="M1290.91,1427.62c4.53,9.06,3.16,18.93-3.06,22.04c-6.22,3.11-14.94-1.71-19.47-10.77
				c-4.53-9.06-3.16-18.93,3.06-22.04C1277.66,1413.74,1286.38,1418.56,1290.91,1427.62z"/>
		</g>
		<g>
			<path class="st33" d="M1513.18,1176.67c0.55-4.62,9.69-6.32,10.42,0.61c0.74,6.93-4.15,19.1-7.62,17.9
				C1512.51,1193.99,1512.42,1183.05,1513.18,1176.67z"/>
		</g>
	</g>
	<g>
		<path class="st19" d="M853.03,1211.33c0,0-5.41,75.88,9.41,84.96c9.29,5.69,46.32,24.88,45.22,28.47
			c-1.1,3.6-20.91,32.01-20.91,32.01s-71.13-46.84-73.42-61.6c-2.24-14.42,3.5-111.1,13.28-115.55c7.32-3.34,11.19-0.58,20.42,6.27
			C859.98,1195.51,853.03,1211.33,853.03,1211.33z"/>
		<g>
			<g>
				<path class="st50" d="M982.67,1232.99l6.27-2.32c0,0-7.82-18.35-11.23-17.91c-3.93,0.51-8.84,1.81-8.84,1.81L982.67,1232.99z"/>
			</g>
		</g>
		<g>
			<g>
				<path class="st51" d="M984.1,1236.16c-0.8-0.6-13.33-24.63-13.33-24.63l-26.76,3.64l14.46,28.46L984.1,1236.16z"/>
			</g>
		</g>
		<g>
			<g>
				<path class="st52" d="M844.76,1763.51c0,0-2.21,15.35-2.49,17.66c-0.28,2.31-24.61-1.36-24.61-1.36l-1.97-18.28
					C815.7,1761.53,841.72,1761.34,844.76,1763.51z"/>
			</g>
		</g>
		<g>
			<g>
				<path class="st53" d="M842.53,1779.21c0,0,7.71,9.25,15.16,13.28c7.46,4.03,19.17,5.63,23.58,9.8
					c3.18,3.01,11.59,15.98-19.37,15.72c-30.96-0.26-45.89,1.83-49.21-3.14c-3.32-4.97,4.8-36.71,4.8-36.71
					S824.83,1780.81,842.53,1779.21z"/>
			</g>
		</g>
		<g>
			<g>
				<path class="st52" d="M966.52,1763.51c0,0-2.21,15.35-2.49,17.66c-0.28,2.31-24.6-1.36-24.6-1.36l-1.97-18.28
					C937.46,1761.53,963.48,1761.34,966.52,1763.51z"/>
			</g>
		</g>
		<g>
			<g>
				<path class="st53" d="M964.29,1779.21c0,0,7.71,9.25,15.16,13.28c7.46,4.03,34.89,7.34,39.3,11.52
					c3.18,3.01,8.48,15.14-35.09,14.01c-30.95-0.81-45.89,1.83-49.21-3.14c-3.32-4.97,4.8-36.71,4.8-36.71
					S946.16,1780.99,964.29,1779.21z"/>
			</g>
		</g>
		<g>
			<g>
				<path class="st53" d="M853.49,1369.01c0,0-22.86,36.32-21.15,69.15c1.71,32.83-2.04,67.9-5.47,102.2
					c-3.83,38.23-14.26,117.8-14.83,138.25c-0.57,20.45,0.75,97.41,0.75,97.41l39.65-0.3c0,0,14.07-155.47,20.89-171.61
					c6.82-16.15,34.82-132.95,35.96-145.86C910.43,1445.33,853.49,1369.01,853.49,1369.01z"/>
			</g>
		</g>
		<g>
			<g>
				<path class="st53" d="M973.83,1373.93c0,0,9.03,89.25,11.3,109.35c2.27,20.09,0.72,107.16,1.85,119.72
					c1.14,12.56-7.6,145.39-9.75,170.68l-43.58-0.28c0,0-3.01-107.45-3.01-159.66s-13.4-112.98-28.74-147.43
					c-15.35-34.45-50.48-35.26-59.92-99.17C841.99,1367.15,961.05,1353.67,973.83,1373.93z"/>
			</g>
		</g>
		<g>
			<g>
				<path class="st33" d="M877.64,1062.79c0,0,27.24-18.19,46.36,1.3c19.13,19.49,28.53,65.32,14.79,74.46
					c-13.74,9.14-37.04,11.55-48.1-0.86c-11.06-12.41-22.86-31.33-25.77-45.16S870.73,1068.61,877.64,1062.79z"/>
			</g>
		</g>
		<g>
			<g>
				<path class="st33" d="M929.54,1141.63c0,0-0.36,19.14,1.75,23.22c2.11,4.08-39.75,4.19-39.75,4.19s-3.4-22.2-9.84-40.95
					C875.25,1109.34,929.54,1141.63,929.54,1141.63z"/>
			</g>
		</g>
		<g>
			<g>
				<path class="st54" d="M882.74,1127.78c0,0,3.91,3.98,14.96-0.53c11.06-4.51,21.46-23.08,25.86-25.88
					c4.4-2.81,3.78-5.63,3.78-5.63l4.03,3.68l5.17-0.88c0,0-7.86-12.57-2.17-19.79c5.69-7.22-17.69-42.51-51.47-20.96
					c0,0-26.44,14.46-21.62,30.3C866.09,1103.92,874.53,1121.27,882.74,1127.78z"/>
			</g>
		</g>
		<g>
			<g>
				<path class="st55" d="M933.77,1164.37c0,0-0.13-7.8-3.67-8.55c-3.53-0.75-39.01-4.16-43.35-2.45v9.08
					C886.76,1162.45,895.12,1167.59,933.77,1164.37z"/>
			</g>
		</g>
		<g>
			<g>
				<path class="st33" d="M925.2,1090.07c-1.28-2.54-9.96-8.64-10.64,0.24c-0.68,8.87,8.53,18.42,11.98,16.6
					C930.01,1105.09,928.45,1096.52,925.2,1090.07z"/>
			</g>
		</g>
		<g>
			<g>
				<path class="st19" d="M1074.57,1256.49c-0.02-0.01-0.03-0.01-0.06,0C1074.76,1256.59,1074.79,1256.6,1074.57,1256.49z"/>
			</g>
		</g>
		<g>
			<g>
				<path class="st19" d="M985.59,1175.17c-25.24-4.44-51.82-10.81-51.82-10.81l-47.02-1.92c0,0-43.15,9.5-60.14,17.17
					c-1.61,0.73-1.62,38.5-6.04,48.4l14.09,29.72c0,0,8.14,58.88,9.83,85.07c0.78,12.02-16.79,112.72-16.79,112.72
					s18.82,5.54,50.91,9.08c32.09,3.54,112.26-1.28,112.77-5.07c0.51-3.79-15.53-141.12-16.24-148.24
					c-1.09-10.92,3.15-61.35,3.15-61.35c6.05,8.12,34.79,43.43,50.86,60.88c9.45,10.27,44.2,28.09,52.26,31.69
					c17.42,7.78,45.33,25.65,46.35,23.78c0.82-1.12,19.56-32.82,17.36-33.55c-1.92-0.64-60.3-36.34-76.96-45.18
					c-6.1-3.23-29.84-43.95-29.84-43.95S999.52,1181.43,985.59,1175.17z"/>
			</g>
		</g>
		<g>
			<g>
				<path class="st54" d="M869.77,1067.48c0,0-38.96,10.45,11.4,58.8L869.77,1067.48z"/>
			</g>
		</g>
		<path class="st56" d="M1167.29,1373.36c0,0-3.43,0.08-4.95-0.61c0,0-2.66-1.47-4.62-2.41c-0.62-0.29-1.17-0.54-1.54-0.66
			c-1.55-0.5-5.1-1.14-8.48-3.38c-3.38-2.24-14.51-11.38-14.51-11.38l6.1-10.87l2.46-10.53c0,0,24.63,0.84,28.02,2.57
			c0.33,0.17,0.65,0.35,0.94,0.54c2.73,1.74,4.03,4.18,5.36,5.26c0.48,0.4,5.04,4.68,4.92,6.55c-0.16,2.59-1.32,4.32-2.87,5.2
			c0,0-0.54,5.06-2.98,7.46c0,0-0.35,4.68-4.23,6.81C1170.92,1367.91,1170.03,1372.62,1167.29,1373.36z"/>
	</g>
	<g>
		<path class="st57" d="M593.93,1117.22c3.82,12.51-1.06,25.08-10.9,28.08c-9.84,3-20.91-4.7-24.72-17.21
			c-3.82-12.51,1.06-25.08,10.9-28.08C579.05,1097.01,590.12,1104.71,593.93,1117.22z"/>
		<path class="st19" d="M642.12,1184.45c0,0,13.91,4.36,21.85,15.28c7.94,10.92,9.18,26.17,9.54,33.98
			c0.35,7.8,2.48,37.96,2.48,37.96l-23.59,6.62L642.12,1184.45z"/>
		<g>
			<path class="st53" d="M742.09,1790.27c0,0,17.69,23.82,15.26,27.59c-2.43,3.78-21.03,4.31-32.36,0
				c-11.33-4.31-11.59-32.23-16.72-44.22c-2.14-5.02,2.45-19.84,8.9-20.92c6.45-1.08,13.47,2.08,13.47,2.08
				S723.96,1771.71,742.09,1790.27z"/>
		</g>
		<g>
			<g>
				<path class="st33" d="M730.78,1754.62c0,0,3.72,10.14,5.08,19.83c1.13,8.03,12.6,25.08,12.07,27.24
					c-0.54,2.16-15.1,4.11-21.03-1.45c-5.93-5.56-9.75-21.73-11.05-31.41c-1.22-9.01-2.75-13.46-2.75-13.46
					S725.11,1748.69,730.78,1754.62z"/>
			</g>
		</g>
		<g>
			<path class="st53" d="M588.11,1790.67c0,0,17.05,23.42,14.63,27.2c-2.43,3.78-21.03,4.31-32.36,0
				c-11.33-4.31-11.59-32.23-16.72-44.22c-2.14-5.02,2.45-19.84,8.9-20.92c6.45-1.08,14.02,2.31,14.02,2.31
				S569.97,1772.1,588.11,1790.67z"/>
		</g>
		<g>
			<g>
				<path class="st33" d="M576.58,1755.04c0,0,1.35,11.05,3.5,18.87c2.16,7.82,13.75,25.62,13.21,27.77
					c-0.54,2.16-15.1,4.11-21.03-1.45c-5.93-5.56-10.52-21.66-11.05-31.41c-0.54-9.75,1.35-16.1,1.35-16.1
					S570.92,1749.11,576.58,1755.04z"/>
			</g>
		</g>
		<g>
			<g>
				<path class="st33" d="M661.8,1367.29c0,0,15.18,70.62,18.67,88.41c3.49,17.78,13.25,103.9,14.29,118.54s15.84,69.82,15.14,75.05
					c-0.7,5.23,21.94,110.29,21.94,110.29s-7.73,6.22-15.88,0.56c-4.19-2.91-49.66-98.35-49.66-124.5
					c0-36.15-26.73-83.33-30.18-91.42c-32.04-75.12-25.73-98.09-29.91-102.97c-4.18-4.88-4.55,3.01-6.99,13.82
					c-2.44,10.81-7.67,104.25-10.8,116.1s-0.7,51.95-2.44,72.17c-1.74,20.22-9.4,111.69-9.4,111.69s-5.93,9.29-14.24,0.24
					c-1.79-1.95-14.36-101.89-14.71-125.95c-0.35-24.06-0.72-57.23-1.39-67.64c-6.46-99.69-22.34-113.93,2.67-184.48
					C595.72,1245.1,661.8,1367.29,661.8,1367.29z"/>
			</g>
		</g>
		<g>
			<path class="st19" d="M559.85,1347.56c0,0-43.25,60.53-24.63,189.29c0,0,102.58,13.95,157.54-16.14
				c0,0-22.73-132.76-30.96-153.42C653.56,1346.64,559.85,1347.56,559.85,1347.56z"/>
		</g>
		<g>
			<polygon class="st53" points="707.81,1771.55 707.81,1796.49 711.05,1796.49 711.05,1777.21 			"/>
		</g>
		<g>
			<polygon class="st53" points="553.19,1771.55 553.19,1796.49 556.42,1796.49 556.42,1777.21 			"/>
		</g>
		<g>
			<path class="st19" d="M617.89,1175.55c0,0,18.7,7.79,24.23,8.9c5.53,1.11,24.23,28.72,28,38.9c3.76,10.18,0,25.45-7.75,43.38
				c-7.75,17.93-0.44,23.9-3.98,41.83s7.89,56.15,8.55,66.11c0.66,9.96-104.04,11.57-124.62-6.58c0,0,20.68-30.98,23.34-35.41
				c2.66-4.43,0.44-28.55-1.99-34.74c-2.43-6.2-18.64-58.89-18.64-58.89s-13.25-40.47-1.28-49.77c10.4-8.08,38.75-10.96,43.84-12.73
				C592.68,1174.78,607.49,1174,617.89,1175.55z"/>
		</g>
		<g>
			<path class="st33" d="M625.5,1157.17c0,0-0.44,4-0.95,9.52c-0.22,2.45-0.47,5.2-0.7,8.04c-0.65,8.04-1.18,16.76-0.87,21.19
				c0,0-16.56,16.6-35.39-19.36c0,0,7.92-14.82,1.96-35.02C583.59,1121.33,625.5,1157.17,625.5,1157.17z"/>
		</g>
		<polygon class="st33" points="667.14,1290.66 669.91,1297.42 663.97,1293.16 		"/>
		<g>
			<g>
				<g>
					<path class="st58" d="M631.14,1065.33c0,0,37.13,11.67,16.97,75.74c-20.15,64.07-70.86-7.42-65.55-46.46
						C587.87,1055.57,631.14,1065.33,631.14,1065.33z"/>
				</g>
			</g>
		</g>
		<g>
			<g>
				<g>
					<path class="st57" d="M651.91,1102.71c0,0-18.45,18.1-49.32,20.37c0,0-11.86,13.91-12.78,19.37c0,0-32.3-53.95,6.31-75.09
						C637.04,1044.95,664.35,1091.11,651.91,1102.71z"/>
				</g>
			</g>
		</g>
		<g>
			<g>
				<g>
					<path class="st58" d="M602.35,1122.71c-0.24-4.66-3.11-15.27-10.04-12.3s0.42,24.58,5.02,23.25
						C597.33,1133.66,602.92,1133.75,602.35,1122.71z"/>
				</g>
			</g>
		</g>
		<path class="st41" d="M624.55,1166.68c-0.22,2.45-0.47,5.2-0.7,8.04h-0.01c-21.46-10.6-24.75-25.88-24.85-26.35
			C615.38,1166.7,624.55,1166.68,624.55,1166.68z"/>
		<path class="st59" d="M672.05,1233.27c0,0,1.02,22.56-4.04,35.49l-4.65-2.41C663.37,1266.35,671.97,1243.78,672.05,1233.27z"/>
		<g>
			<g>
				<path class="st33" d="M591.52,1306.62c0,0,8.57-5.68,9.91-6.5c1.34-0.83,6.02-0.56,10.84,0.96c4.68,1.48,9.95,3.52,11.41,4.34
					c0.76,0.43,1.52,0.57,1.19,2.78c-0.33,2.21-1.82,3.9-1.82,3.9s0.88,2.92-1.12,4.86c0,0,0.7,2.78-1.93,4.62
					c0,0,0.61,2.73-1.42,3.91c0,0-4.38,0.6-6.03,0.25c-2.34-0.5-14.59-3.32-23.19-5.58
					C589.34,1320.15,585.79,1318.03,591.52,1306.62z"/>
			</g>
		</g>
		<g>
			<path class="st33" d="M621.08,1304.71c0,0,22.21,4.88,21.93,6.6c-0.39,2.5-5.9,3.42-22.76-1.22
				C603.86,1305.57,621.08,1304.71,621.08,1304.71z"/>
		</g>
		<path class="st19" d="M566.35,1185.55c-5.04-3.05-21.85-2.71-28.42,13.07c-6.57,15.78-11.94,33.75-16.54,42
			c-4.61,8.25-20.26,45.9-15.61,50.42c4.65,4.52,14.2,9.9,28.58,13.28c14.85,3.49,57.89,19.53,57.89,19.53l5.5-23.31
			c0,0-18.93-9.03-29.85-13.41c-9.72-3.9-8.52-4.93-24.55-10.6c0,0,9.2-23.44,13.34-29.71
			C560.82,1240.56,589.02,1199.26,566.35,1185.55z"/>
		<g>
			<path class="st60" d="M624.96,1346.34l57.61-4.65c2.59-0.21,4.93-1.64,6.29-3.85l59.7-96.84c3.33-5.41-0.51-12.38-6.86-12.45
				l-61.73-0.65c-3.02-0.03-5.81,1.61-7.26,4.26l-55.59,102.14C614.03,1339.99,618.49,1346.86,624.96,1346.34z"/>
		</g>
		<g>
			<g>
				<path class="st33" d="M705.62,1310.74c0,0,3.62-3.36,6.85-8.07c3.23-4.71,13.79-22.69,12.82-23.82s-16.64-1.51-19.49,1.05
					c-2.84,2.56,2.8,3.56,2.8,3.56s-8.57,0.88-7.96,3.3c0.61,2.42,5.77,1.75,5.77,1.75s-6.9,1.32-5.85,3.45
					c1.04,2.13,4.37,2.1,4.37,2.1s-6.12,0.77-5.36,3.09c0.76,2.32,10.43,4.51,9.14,6.44
					C707.41,1305.51,705.62,1310.74,705.62,1310.74z"/>
			</g>
		</g>
		<path class="st33" d="M584.86,1177.23c0,0,20.79,33.86,37.29,33.46c16.5-0.4,5.24-31.32,5.24-31.32S614.73,1169.25,584.86,1177.23
			z"/>
		<path class="st61" d="M693.18,1290.87c-5.57,5.57-13.1,7.08-16.81,3.36c-3.71-3.71-2.21-11.24,3.37-16.81s13.1-7.08,16.81-3.37
			C700.26,1277.77,698.76,1285.3,693.18,1290.87z"/>
		<path class="st57" d="M654.92,1093.81c0,0,2.32,8.89-1.59,24.44c0,0,0.61-14.64-2.45-18.63
			C647.82,1095.63,654.92,1093.81,654.92,1093.81z"/>
	</g>
</g>
</svg>
